<?xml version="1.0" standalone="no"?>
<!DOCTYPE svg PUBLIC "-//W3C//DTD SVG 20010904//EN"
 "http://www.w3.org/TR/2001/REC-SVG-20010904/DTD/svg10.dtd">
<svg version="1.0" xmlns="http://www.w3.org/2000/svg"
 width="40.000000pt" height="32.000000pt" viewBox="0 0 40.000000 32.000000"
 preserveAspectRatio="xMidYMid meet">
<metadata>
Created by potrace 1.16, written by Peter Selinger 2001-2019
</metadata>
<g transform="translate(0.000000,32.000000) scale(0.008081,-0.007080)"
fill="#000000" stroke="none">
<path d="M203 4247 c-87 -121 -127 -243 -121 -368 4 -76 9 -97 41 -162 76
-153 189 -223 310 -192 115 30 154 142 96 275 -14 31 -60 84 -154 175 -151
147 -167 176 -147 263 5 26 9 48 8 49 -2 2 -16 -16 -33 -40z"/>
<path d="M2435 3874 c-137 -22 -304 -94 -424 -184 -211 -160 -333 -375 -371
-657 -24 -175 18 -390 110 -560 l38 -72 -80 79 c-98 96 -200 168 -311 220 -99
46 -173 62 -268 59 l-71 -2 -72 139 c-40 76 -89 165 -108 196 l-35 58 -33 -41
c-33 -41 -116 -89 -156 -89 -11 0 -23 -3 -27 -6 -7 -8 69 -162 149 -299 56
-98 58 -102 59 -180 2 -89 20 -143 63 -189 31 -33 96 -65 132 -66 19 -1 35
-15 64 -58 106 -153 298 -402 312 -402 8 0 17 6 20 13 5 13 -84 264 -160 451
-35 87 -35 89 -18 120 12 22 17 55 17 113 0 88 6 88 30 -3 19 -74 19 -128 0
-190 l-15 -49 57 -54 c563 -530 577 -543 607 -537 16 4 31 7 32 9 1 1 -1 45
-6 97 -4 52 -7 96 -5 98 1 1 26 -54 55 -123 l53 -125 42 39 c104 96 240 140
450 148 134 5 344 -15 382 -36 9 -5 -4 -15 -39 -31 -64 -28 -212 -173 -277
-270 l-43 -65 6 60 c4 33 10 69 13 79 5 18 1 19 -63 12 -222 -22 -422 -130
-524 -282 -98 -148 -147 -360 -107 -470 59 -161 124 -221 302 -277 157 -49
288 -56 404 -21 l43 13 -23 -25 c-35 -38 -134 -82 -198 -90 l-58 -6 -17 -68
c-33 -137 -14 -228 54 -263 48 -25 188 -21 218 6 16 15 25 16 41 8 56 -31 106
-2 132 76 20 61 7 274 -22 358 -24 69 -25 71 -154 178 -71 60 -146 122 -165
139 l-35 29 57 -5 c63 -5 60 -7 73 69 13 84 47 166 84 206 l38 39 90 0 91 0 0
83 c0 100 23 203 57 257 27 43 77 80 108 80 16 0 16 -2 -3 -22 -50 -53 -101
-174 -113 -265 l-5 -43 41 34 c51 41 99 66 127 66 17 0 7 -17 -57 -93 -111
-131 -174 -228 -214 -334 l-9 -24 27 21 c16 11 69 52 118 90 153 118 271 171
335 148 l33 -11 86 89 c102 105 146 169 167 241 21 73 8 107 -70 187 -137 139
-331 186 -480 116 l-41 -20 25 22 c72 61 227 107 306 90 l44 -10 87 154 c48
84 89 152 90 150 2 -1 -24 -78 -57 -170 -33 -92 -60 -171 -60 -175 0 -5 14
-14 31 -21 29 -12 32 -11 77 32 26 24 145 138 265 252 l217 209 -35 38 c-76
84 -95 172 -53 239 l23 35 5 -65 c5 -65 30 -122 51 -117 6 1 32 -82 59 -188
26 -104 53 -202 58 -216 l11 -27 58 30 c50 25 67 29 126 26 l69 -3 -7 45 c-4
25 -17 85 -30 135 l-22 89 33 61 c63 114 55 208 -22 282 -24 24 -65 50 -94 60
-45 16 -52 22 -67 63 -41 114 -185 473 -217 543 -32 71 -55 93 -71 68 -8 -14
55 -591 71 -643 4 -13 -8 -20 -53 -33 -136 -39 -299 -138 -438 -267 l-60 -56
47 95 c55 113 87 235 95 374 6 99 6 99 28 85 37 -24 126 -46 189 -46 90 0 90
1 76 106 -6 49 -12 90 -14 91 -1 1 -43 -3 -94 -9 -76 -10 -102 -10 -149 2 -47
13 -58 19 -64 41 -6 26 -4 27 90 58 53 17 120 36 149 42 l53 11 -3 56 -3 57
-33 -3 c-44 -3 -141 -45 -215 -92 l-60 -38 -43 89 c-123 253 -335 432 -606
510 -56 16 -107 22 -223 24 -82 2 -163 1 -180 -1z m725 -866 c51 -15 97 -54
121 -100 17 -33 20 -55 17 -104 -5 -82 -42 -138 -113 -174 -46 -23 -60 -25
-190 -24 -110 0 -179 7 -322 32 -256 45 -282 44 -512 -29 -173 -55 -224 -51
-285 22 -113 134 -95 263 46 335 89 45 111 47 623 53 524 6 561 6 615 -11z"/>
<path d="M2012 2929 c-38 -19 -88 -67 -79 -76 2 -2 19 5 38 14 20 10 57 17 90
18 46 0 64 -6 99 -30 23 -17 54 -38 69 -47 28 -19 87 -23 111 -8 17 11 -9 34
-103 93 -100 61 -155 70 -225 36z"/>
<path d="M2907 2936 c-46 -17 -132 -68 -171 -103 -23 -20 -26 -27 -15 -34 27
-17 85 -10 120 16 19 14 58 37 87 51 56 28 100 27 170 -2 31 -12 32 -12 22 7
-17 32 -86 71 -132 75 -24 2 -60 -2 -81 -10z"/>
<path d="M4816 3494 c-100 -36 -376 -63 -658 -64 -91 0 -148 -4 -148 -10 0
-16 52 -144 64 -158 26 -28 243 -69 508 -96 l56 -6 73 108 c40 59 95 137 121
175 50 70 48 75 -16 51z"/>
<path d="M590 3404 c-25 -18 -60 -38 -77 -45 -18 -6 -33 -14 -33 -19 0 -12 54
-155 83 -222 28 -64 38 -68 109 -46 47 14 138 92 138 118 0 16 -149 233 -168
243 -4 2 -27 -11 -52 -29z"/>
<path d="M1595 3369 c-159 -120 -319 -294 -416 -449 l-49 -80 43 0 c100 0 254
-50 359 -116 21 -13 39 -24 42 -24 2 0 0 17 -5 38 -17 70 -22 254 -9 332 7 41
13 84 15 96 4 32 51 157 80 214 14 27 24 50 23 50 -2 -1 -39 -28 -83 -61z"/>
<path d="M4110 3173 c0 -14 95 -248 102 -254 4 -3 39 -13 77 -23 38 -10 103
-35 145 -55 l75 -37 11 50 c13 62 43 130 76 174 14 18 24 36 21 39 -14 13
-250 85 -325 98 -90 16 -182 20 -182 8z"/>
<path d="M3616 2826 c-3 -17 -8 -53 -12 -79 l-6 -48 83 44 c46 25 105 53 132
62 26 10 47 20 47 24 -1 21 -27 26 -127 27 l-111 1 -6 -31z"/>
<path d="M916 2174 c-20 -151 5 -516 37 -536 7 -4 55 -8 108 -8 106 0 174 16
294 71 90 41 204 69 279 69 l61 0 -110 104 c-61 57 -111 103 -113 101 -1 -1 7
-28 18 -60 28 -81 26 -101 -14 -141 -41 -41 -89 -46 -129 -14 -15 12 -97 115
-183 230 -117 156 -163 210 -183 215 -14 3 -33 8 -42 11 -13 3 -18 -6 -23 -42z"/>
<path d="M3762 1980 l-222 -213 41 -44 c133 -144 99 -290 -121 -518 -99 -102
-114 -136 -76 -172 58 -56 54 -169 -8 -261 -79 -115 -341 -182 -514 -132 l-32
9 14 -27 c24 -47 45 -134 56 -231 6 -52 12 -97 14 -99 9 -8 142 23 264 64 281
92 529 255 735 483 85 92 199 256 249 354 33 67 34 64 -31 107 l-22 15 27 59
c51 113 48 140 -55 491 -51 171 -93 314 -94 319 -2 5 -103 -87 -225 -204z"/>
<path d="M4241 2039 c-24 -5 -61 -20 -82 -34 l-38 -25 23 -67 c13 -38 34 -93
46 -123 12 -30 26 -65 31 -77 8 -21 10 -22 47 -9 22 8 64 17 95 21 l55 7 -4
42 c-3 22 -12 92 -20 154 l-16 112 -33 0 c-18 0 -39 2 -47 4 -7 2 -33 0 -57
-5z"/>
<path d="M2520 1744 c-14 -2 -59 -9 -100 -15 -82 -12 -267 -70 -371 -117 l-66
-30 -11 -83 c-21 -149 -23 -147 66 -59 62 62 96 86 172 124 106 52 249 90 375
101 72 6 83 9 113 38 29 28 31 32 15 39 -18 7 -148 8 -193 2z"/>
<path d="M1546 1680 c-32 -5 -95 -26 -140 -46 -127 -56 -175 -72 -256 -82
-112 -16 -257 5 -373 53 -16 7 -17 -3 -17 -134 0 -109 3 -141 13 -141 33 0
258 33 314 46 89 20 194 60 293 109 47 24 114 51 150 60 71 19 208 25 306 12
l62 -8 5 33 c3 18 2 37 -3 41 -4 4 -39 19 -78 33 -80 28 -189 37 -276 24z"/>
<path d="M4305 1655 c-27 -8 -53 -14 -56 -15 -3 0 -6 -48 -6 -107 1 -76 -4
-120 -15 -149 l-16 -41 63 -62 c68 -67 116 -147 136 -226 7 -27 14 -45 16 -39
7 21 -67 377 -82 394 -19 21 -19 44 1 64 34 35 80 3 69 -48 -3 -19 7 -106 27
-216 l33 -185 6 105 c6 104 27 184 65 248 16 28 16 29 -25 83 -38 51 -81 151
-81 191 0 15 -8 18 -42 17 -24 0 -65 -7 -93 -14z"/>
<path d="M1634 1480 c-93 -13 -140 -28 -237 -77 -94 -46 -279 -113 -316 -113
-28 0 -23 -19 27 -110 77 -141 173 -273 283 -392 125 -134 363 -298 550 -379
97 -42 318 -113 327 -105 2 3 8 22 12 43 4 21 10 49 14 63 7 25 4 26 -91 55
-136 41 -204 77 -258 138 -80 88 -142 243 -130 320 10 56 4 48 -35 -48 -18
-44 -36 -83 -39 -87 -12 -14 -121 21 -174 55 -71 46 -189 173 -266 286 l-64
94 89 -6 c111 -8 144 1 236 63 65 43 233 189 226 195 -10 9 -103 11 -154 5z"/>
<path d="M1776 1349 c-148 -135 -283 -218 -354 -219 -23 0 -23 -1 9 -42 57
-74 152 -162 206 -191 l51 -27 92 230 c59 149 93 250 97 285 3 30 4 55 2 54
-2 0 -48 -41 -103 -90z"/>
<path d="M3170 1107 c-61 -25 -239 -129 -312 -182 -60 -44 -79 -95 -54 -143
23 -44 53 -61 127 -73 67 -11 152 -2 245 26 102 30 164 94 164 171 0 81 -17
91 -85 49 -67 -41 -73 -28 -21 44 51 71 58 88 46 111 -14 26 -42 25 -110 -3z"/>
<path d="M2697 1089 c-22 -35 -45 -110 -59 -190 -11 -67 -10 -71 10 -92 12
-11 24 -18 27 -15 4 3 18 48 32 100 14 51 36 117 49 147 14 30 23 56 21 57 -2
2 -17 7 -34 10 -26 5 -34 2 -46 -17z"/>
</g>
</svg>
